<?xml version="1.0" standalone="no"?>
<!DOCTYPE svg PUBLIC "-//W3C//DTD SVG 20010904//EN"
 "http://www.w3.org/TR/2001/REC-SVG-20010904/DTD/svg10.dtd">
<svg version="1.0" xmlns="http://www.w3.org/2000/svg"
 width="720.000000pt" height="720.000000pt" viewBox="0 0 720.000000 720.000000"
 preserveAspectRatio="xMidYMid meet">
<metadata>
Created by potrace 1.15, written by Peter Selinger 2001-2017
</metadata>
<g transform="translate(0.000000,720.000000) scale(0.100000,-0.100000)"
fill="#000000" stroke="none">
<path d="M3413 6879 c-268 -13 -556 -67 -825 -155 -987 -322 -1763 -1088
-2098 -2070 -83 -243 -138 -497 -160 -743 -14 -147 -14 -486 0 -621 45 -447
166 -846 377 -1242 306 -575 804 -1066 1380 -1361 441 -225 864 -339 1355
-366 145 -7 380 -1 503 14 439 53 779 154 1146 341 897 456 1548 1321 1734
2304 53 281 70 681 41 960 -136 1289 -1020 2381 -2254 2784 -386 126 -765 175
-1199 155z m520 -494 c529 -59 1053 -285 1467 -633 111 -93 299 -284 388 -394
251 -309 437 -688 536 -1090 121 -492 106 -1014 -45 -1503 -232 -752 -798
-1394 -1518 -1720 -718 -326 -1543 -335 -2271 -23 -633 271 -1163 790 -1445
1415 -79 175 -202 552 -184 566 2 2 211 32 464 67 253 34 475 65 493 67 l32 6
0 -356 c0 -387 7 -458 55 -566 32 -70 92 -132 160 -163 48 -22 61 -23 370 -26
176 -2 393 -1 483 3 l162 7 0 597 0 598 788 6 c433 4 930 7 1104 7 297 0 318
1 327 18 5 10 17 70 27 133 20 139 15 338 -13 444 l-18 70 -335 -3 c-184 -1
-683 -5 -1107 -8 l-773 -7 0 321 0 320 88 6 c48 3 545 8 1105 12 559 4 1019 9
1021 13 3 4 12 45 22 91 25 120 25 319 0 428 l-19 84 -796 -7 c-2420 -22
-2290 -19 -2356 -43 -150 -55 -247 -184 -286 -382 -6 -34 -10 -186 -9 -394 l1
-338 -33 5 c-18 3 -244 27 -503 53 -258 26 -471 48 -473 49 -7 6 45 215 85
340 102 315 231 566 429 830 292 390 689 702 1134 893 302 130 593 197 975
226 82 6 337 -4 468 -19z"/>
<path d="M4170 2650 c-377 -4 -688 -8 -692 -9 -5 0 -8 -136 -8 -301 l0 -299
638 6 c350 3 760 8 911 12 l275 6 14 50 c20 68 21 395 1 480 l-14 60 -220 1
c-121 0 -528 -3 -905 -6z"/>
</g>
</svg>
